# xmcd CD database file
#
# Track frame offsets:
#	151
#	18616
#	38422
#	59960
#	75964
#	101250
#	127237
#	152018
#	167113
#	188858
#
# Disc length: 2718 seconds
#
# Revision: 1
# Processed by: cddbd v1.5.1PL0 Copyright (c) Steve Scherf et al.
# Submitted via: CDex 1.50
#
DISCID=7c0a9c0a
DTITLE=Heritage Singers - Saved by Grace
DYEAR=2004
DGENRE=Contemporary Christian
TTITLE0=Forgive Me
TTITLE1=Loving God, Loving Each Other
TTITLE2=It Is No Secret (What God Can Do)
TTITLE3=Yes I am
TTITLE4=Hide Thou Me
TTITLE5=There Is A River
TTITLE6=Sinner Saved By Grace
TTITLE7=Somebody Sing Me A Gospel Song
TTITLE8=Mansion Over The Hilltop
TTITLE9=Beulah Land
EXTD=YEAR: 2004
EXTT0=
EXTT1=
EXTT2=
EXTT3=
EXTT4=
EXTT5=
EXTT6=
EXTT7=
EXTT8=
EXTT9=
PLAYORDER=
